# xmcd
#
# Track frame offsets:
#	150
#	13325
#	23767
#	37490
#	50240
#	63215
#	71767
#	82940
#	98842
#	115190
#	123517
#	135742
#	148512
#	163380
#	174555
#	190982
#	205075
#	215202
#	228485
#	241762
#	254887
#	266887
#
# Disc length: 3710 seconds
#
# Revision: 3
# Processed by: cddbd v1.5.2PL0 Copyright (c) Steve Scherf et al.
# Submitted via: audiograbber 1.83.01
#
DISCID=5c0e7c16
DTITLE=Slim Whitman - Best Loved Favourites (Dino Music)
DYEAR=1991
DGENRE=Country
TTITLE0=Red Sails In The Sunset
TTITLE1=Anytime You're Feeling Lonely
TTITLE2=You Are My Sunshine
TTITLE3=Half As Much
TTITLE4=Please Release Me
TTITLE5=I'll Get By
TTITLE6=The Wayward Wind
TTITLE7=Down In The Valley
TTITLE8=I Wish I Was Eighteen Again
TTITLE9=Have You Ever Been Lonely
TTITLE10=Before The Next Teardrop Falls (with Byron Whitman)
TTITLE11=Tennessee Waltz
TTITLE12=Mockin' Bird Hill
TTITLE13=Singing The Blues
TTITLE14=The Three Bells
TTITLE15=What A Fool I Was
TTITLE16=Cara Mia
TTITLE17='Till I Waltz Again With You
TTITLE18=A Cowboy's Heaven (with Byron Whitman)
TTITLE19=Wabash Waltz (with Byron Whitman)
TTITLE20=Now Is The Hour
TTITLE21=It Is No Secret
EXTD=YEAR: 1991
EXTT0=
EXTT1=
EXTT2=
EXTT3=
EXTT4=
EXTT5=
EXTT6=
EXTT7=
EXTT8=
EXTT9=
EXTT10=
EXTT11=
EXTT12=
EXTT13=
EXTT14=
EXTT15=
EXTT16=
EXTT17=
EXTT18=
EXTT19=
EXTT20=
EXTT21=
PLAYORDER=
